<svg width="20" height="21" viewBox="0 0 20 21" fill="none" xmlns="http://www.w3.org/2000/svg">
<path d="M18.6768 0.0251371C18.6014 0.0251371 18.5763 0.0754111 18.526 0.100548L9.09961 6.787C8.99906 6.86241 8.84824 7.06351 8.77283 7.1892L8.44605 7.81762C10.2559 8.39577 11.6385 9.77831 12.2166 11.5882L12.845 11.2614C12.9707 11.186 13.1467 11.0603 13.2472 10.9346L19.9337 1.50822C20.0091 1.38254 20.0342 1.28199 19.9337 1.18144L18.8277 0.0754112C18.7774 0.0251371 18.7271 0 18.6768 0V0.0251371ZM6.66132 10.0045C4.80118 10.0045 3.36836 11.5379 3.36836 13.3729C3.36836 15.8615 1.98583 18.0233 0 19.1796C0.980345 19.7326 2.16179 20.0342 3.36836 20.0342C7.06351 20.0342 10.0548 17.0681 10.0548 13.3478C10.0548 11.4876 8.52146 9.97941 6.68646 9.97941L6.66132 10.0045Z" fill="#94785D"/>
</svg>
